<svg id="svg" version="1.1" xmlns="http://www.w3.org/2000/svg" width="24" height="24" viewBox="0 0 24 24">
    <circle cx="12" cy="12" id="coin" r="11.8" fill="black" />
    <path fill="#FFC926" d="m17.38 4.258v14.256a.648.648 90 01-.648.648h-2.268v-11.016c0-.5359-.4361-.972-.972-.972h-1.296v-2.916a.648.648 90 01.648-.648h3.888a.648.648 90 01.648.648zm-3.888 3.24h-3.888a.648.648 90 00-.648.648v2.916h1.296c.5359 0 .972.4361.972.972v7.128h2.916v-11.016a.648.648 90 00-.648-.648zm-3.24 3.888h-3.888a.648.648 90 00-.648.648v6.48a.648.648 90 00.648.648h4.536v-7.128a.648.648 90 00-.648-.648z"/>
</svg>