<svg id="svg" version="1.1" xmlns="http://www.w3.org/2000/svg" width="24" height="24" viewBox="0 0 24 24">
    <circle cx="12" cy="12" id="coin" r="11.8" fill="black" />
    <path fill="#FFC926" d="m18.2 3.62v15.84a.72.72 90 01-.72.72h-2.52v-12.24c0-.5954-.4846-1.08-1.08-1.08h-1.44v-3.24a.72.72 90 01.72-.72h4.32a.72.72 90 01.72.72zm-4.32 3.6h-4.32a.72.72 90 00-.72.72v3.24h1.44c.5954 0 1.08.4846 1.08 1.08v7.92h3.24v-12.24a.72.72 90 00-.72-.72zm-3.6 4.32h-4.32a.72.72 90 00-.72.72v7.2a.72.72 90 00.72.72h5.04v-7.92a.72.72 90 00-.72-.72z"/>
</svg>